<?xml version="1.0" encoding="iso-8859-1"?>
<!-- Generator: Adobe Illustrator 16.0.0, SVG Export Plug-In . SVG Version: 6.00 Build 0)  -->
<!DOCTYPE svg PUBLIC "-//W3C//DTD SVG 1.1//EN" "http://www.w3.org/Graphics/SVG/1.1/DTD/svg11.dtd">
<svg version="1.1" id="Capa_1" xmlns="http://www.w3.org/2000/svg" xmlns:xlink="http://www.w3.org/1999/xlink" x="0px" y="0px"
	 width="77.041px" height="77.041px" viewBox="0 0 77.041 77.041" style="enable-background:new 0 0 77.041 77.041;"
	 xml:space="preserve">
<g>
	<g>
		<path d="M38.785,31.395c-5.146,0-9.333,5.295-9.333,11.804c0,6.511,4.187,11.806,9.333,11.806c5.146,0,9.332-5.295,9.332-11.806
			C48.117,36.689,43.93,31.395,38.785,31.395z M38.785,52.002c-3.492,0-6.333-3.949-6.333-8.806c0-4.854,2.841-8.804,6.333-8.804
			c3.49,0,6.332,3.949,6.332,8.804C45.117,48.053,42.275,52.002,38.785,52.002z"/>
		<path d="M50.71,43.198c0,6.511,4.188,11.806,9.334,11.806s9.332-5.295,9.332-11.806c0-6.509-4.188-11.804-9.332-11.804
			C54.898,31.395,50.71,36.689,50.71,43.198z M66.378,43.198c0,4.854-2.842,8.806-6.334,8.806s-6.332-3.949-6.332-8.806
			c0-4.854,2.84-8.804,6.332-8.804S66.378,38.345,66.378,43.198z"/>
		<path d="M60.044,56.984c-4.022,0-7.717,1.012-10.631,2.688c-2.914-1.676-6.606-2.688-10.631-2.688
			c-4.142,0-7.938,1.068-10.891,2.836c-2.952-1.768-6.749-2.836-10.891-2.836c-9.374,0-17,5.458-17,12.166
			c0,0.828,0.671,1.5,1.5,1.5h21.781H32.5h12.041h9.738h21.262c0.828,0,1.5-0.672,1.5-1.5
			C77.044,62.442,69.418,56.984,60.044,56.984z M43.188,67.65h-2.904v-7.607c2.375,0.168,4.572,0.725,6.441,1.569
			C44.839,63.316,43.578,65.387,43.188,67.65z M37.285,60.041v7.607h-3.426c-0.379-2.193-1.578-4.202-3.368-5.875
			C32.434,60.834,34.759,60.219,37.285,60.041z M17.002,59.984c3.103,0,5.97,0.668,8.293,1.791c-1.79,1.673-2.989,3.684-3.368,5.875
			H3.189C4.287,63.307,10.062,59.984,17.002,59.984z M24.971,67.65c0.402-1.592,1.436-3.043,2.921-4.247
			c1.485,1.204,2.521,2.655,2.921,4.247H24.971z M46.232,67.65c0.424-1.682,1.557-3.208,3.182-4.449
			c1.625,1.241,2.76,2.77,3.186,4.449H46.232z M55.641,67.65c-0.392-2.264-1.65-4.334-3.539-6.038
			c2.26-1.021,4.994-1.628,7.942-1.628c6.938,0,12.715,3.322,13.812,7.666H55.641z"/>
		<path d="M7.668,43.198c0,6.511,4.187,11.806,9.333,11.806s9.333-5.295,9.333-11.806c0-6.509-4.188-11.804-9.333-11.804
			C11.855,31.395,7.668,36.689,7.668,43.198z M23.335,43.198c0,4.854-2.841,8.806-6.333,8.806s-6.333-3.949-6.333-8.806
			c0-4.854,2.841-8.804,6.333-8.804S23.335,38.345,23.335,43.198z"/>
		<path d="M55.432,12.654c-1.289-3.691-4.822-6.264-8.814-6.264H30.952c-4.245,0-7.915,2.854-9.004,6.89
			c-5.271,2.876-5.136,9.463-4.278,12.665c0.187,0.696,0.846,1.167,1.56,1.108c0.719-0.055,1.298-0.609,1.38-1.326
			c0.201-1.759,1.157-3.251,2.849-4.45c1.74,2.364,4.49,3.78,7.496,3.78h3.57l1.219,3.2c0.215,0.565,0.75,0.946,1.354,0.966
			c0.016,0.001,0.031,0.001,0.047,0.001c0.587,0,1.123-0.345,1.366-0.881l1.487-3.286h6.621c3.008,0,5.818-1.46,7.562-3.87
			c1.571,0.347,4.803,1.556,5.106,5.648c0.06,0.761,0.676,1.356,1.438,1.388c0.767,0.028,1.426-0.518,1.543-1.27
			c0.051-0.322,1.188-7.957-2.229-11.946C58.854,13.627,57.309,12.839,55.432,12.654z M53.445,18.058
			c-0.543,0-1.043,0.292-1.307,0.765c-1.125,1.995-3.24,3.235-5.521,3.235h-7.588c-0.589,0-1.125,0.345-1.366,0.881l-0.401,0.885
			l-0.304-0.799c-0.222-0.582-0.779-0.967-1.402-0.967h-4.605c-2.409,0-4.579-1.346-5.661-3.512c-0.182-0.361-0.5-0.636-0.887-0.759
			c-0.148-0.047-0.302-0.069-0.456-0.069c-0.243,0-0.486,0.06-0.707,0.177c-1.05,0.561-1.962,1.204-2.729,1.92
			c0.412-1.644,1.359-3.251,3.351-4.137c0.453-0.201,0.776-0.613,0.866-1.102c0.55-3.005,3.167-5.187,6.224-5.187h15.667
			c2.982,0,5.59,2.115,6.199,5.031c0.147,0.714,0.799,1.246,1.518,1.192l0.217-0.003c1.383,0,2.432,0.439,3.207,1.344
			c0.75,0.875,1.197,2.115,1.449,3.431C57.044,18.572,54.391,18.058,53.445,18.058z"/>
	</g>
</g>
<g>
</g>
<g>
</g>
<g>
</g>
<g>
</g>
<g>
</g>
<g>
</g>
<g>
</g>
<g>
</g>
<g>
</g>
<g>
</g>
<g>
</g>
<g>
</g>
<g>
</g>
<g>
</g>
<g>
</g>
</svg>
