<?xml version="1.0" encoding="iso-8859-1"?>
<!-- Generator: Adobe Illustrator 19.0.0, SVG Export Plug-In . SVG Version: 6.00 Build 0)  -->
<svg version="1.1" id="Layer_1" xmlns="http://www.w3.org/2000/svg" xmlns:xlink="http://www.w3.org/1999/xlink" x="0px" y="0px"
	 viewBox="0 0 512 512" style="enable-background:new 0 0 512 512; fill:#FFB606" xml:space="preserve">
<g>
	<g>
		<g>
			<path d="M128,494.875H21.581c2.739-8.917,4.42-21.666-0.307-36.454c-4.762-14.882-1.041-27.776,9.958-34.483
				c5.461-3.336,11.511-4.181,16.444-2.918c-4.463,8.627-8.627,22.741,0.051,37.76c9.532,16.529,25.813,19.004,34.671,19.004
				c4.361,0,7.407-0.597,7.74-0.666c1.818-0.375,3.456-1.323,4.685-2.705c0.785-0.888,19.115-22.016,5.316-45.892
				c-7.108-12.305-19.942-19.354-35.217-19.354c-0.939,0-1.801,0.026-2.569,0.068c-10.803-7.893-26.573-8.055-40.004,0.128
				c-14.037,8.559-25.958,27.307-17.34,54.263c6.349,19.831-3.123,34.347-3.499,34.901c-0.188,0.265-0.222,0.58-0.367,0.862
				c-0.256,0.461-0.461,0.939-0.623,1.459c-0.188,0.58-0.299,1.143-0.35,1.741C0.137,502.87,0,503.118,0,503.408
				c0,0.265,0.128,0.478,0.154,0.734c0.043,0.563,0.162,1.092,0.324,1.63c0.171,0.563,0.35,1.092,0.623,1.596
				c0.222,0.418,0.486,0.785,0.785,1.161c0.41,0.538,0.845,0.998,1.365,1.425c0.171,0.128,0.256,0.324,0.435,0.444
				c0.256,0.179,0.546,0.256,0.819,0.401c0.393,0.213,0.759,0.418,1.178,0.572c0.734,0.256,1.485,0.393,2.244,0.444
				c0.213,0.017,0.393,0.128,0.606,0.128H128c4.71,0,8.533-3.823,8.533-8.533S132.71,494.875,128,494.875z M64.316,426.241
				c6.272-0.102,15.71,1.579,21.043,10.812c5.7,9.865,1.203,19.32-1.562,23.629c-0.435,0.017-0.896,0.034-1.399,0.034
				c-6.323,0-14.899-1.818-19.891-10.47C56.815,440.398,61.449,430.696,64.316,426.241z"/>
			<path d="M281.6,494.875h-93.867v-34.133h11.947c0.981,0,24.192-0.188,40.166-16.154C255.812,428.613,256,405.403,256,404.421
				v-20.48c0-4.71-3.823-8.533-8.533-8.533h-20.48c-0.981,0-24.192,0.188-40.166,16.154c-7.859,7.868-11.887,17.468-13.961,25.327
				c-1.587-1.69-3.166-3.319-4.693-4.847c-7.151-7.151-12.979-12.996-14.285-23.484c10.505-7.006,33.852-26.795,33.852-64.35
				c0-47.394-37.265-66.569-38.852-67.371c-2.398-1.195-5.231-1.195-7.629,0c-1.587,0.802-38.852,19.977-38.852,67.371
				c0,38.272,24.277,58.121,34.466,64.777c1.63,17.331,11.273,27.162,19.234,35.123c8.141,8.141,14.566,14.566,14.566,28.1v42.667
				h-8.533c-4.71,0-8.533,3.823-8.533,8.533s3.823,8.533,8.533,8.533H281.6c4.719,0,8.533-3.823,8.533-8.533
				S286.319,494.875,281.6,494.875z M187.733,431.762c0-0.171,0.265-17.246,11.153-28.134s27.955-11.153,28.1-11.153h11.947v11.913
				c0,0.171-0.265,17.246-11.153,28.134c-10.803,10.803-27.691,11.145-28.126,11.153h-11.921V431.762z M145.075,373.957
				c-7.953-5.504-25.609-20.966-25.609-49.749c0-28.885,17.587-44.254,25.583-49.749c7.953,5.504,25.617,20.958,25.617,49.749
				C170.667,353.076,153.097,368.445,145.075,373.957z"/>
			<path d="M503.467,494.875H392.533v-102.4H409.6c1.195,0,29.355-0.222,48.7-19.567c19.345-19.345,19.567-47.505,19.567-48.7v-25.6
				c0-4.71-3.814-8.533-8.533-8.533h-25.6c-1.195,0-29.355,0.222-48.7,19.567c-0.879,0.888-1.69,1.809-2.5,2.731v-73.498
				c0-4.71-3.814-8.533-8.533-8.533c-4.719,0-8.533,3.823-8.533,8.533v124.698c-0.811-0.922-1.621-1.843-2.5-2.731
				c-19.345-19.345-47.505-19.567-48.7-19.567h-25.6c-4.719,0-8.533,3.823-8.533,8.533v25.6c0,1.195,0.222,29.355,19.567,48.7
				c19.345,19.345,47.505,19.567,48.7,19.567h17.067v51.2h-8.533c-4.719,0-8.533,3.823-8.533,8.533s3.814,8.533,8.533,8.533h136.533
				c4.719,0,8.533-3.823,8.533-8.533S508.186,494.875,503.467,494.875z M392.533,358.341c0-0.222,0.171-22.238,14.566-36.634
				c14.259-14.259,36.437-14.566,36.634-14.566H460.8v17.067c0,0.222-0.171,22.229-14.566,36.634
				c-14.157,14.157-36.122,14.558-36.651,14.566h-17.05V358.341z M375.467,426.608H358.4c-0.213,0-22.238-0.171-36.634-14.566
				c-14.259-14.259-14.566-36.437-14.566-36.634v-17.067h17.067c0.213,0,22.229,0.162,36.634,14.566
				c14.259,14.259,14.566,36.437,14.566,36.634V426.608z"/>
			<path d="M332.8,187.675c2.185,0,4.369-0.836,6.033-2.5l27.964-27.964c5.069,2.987,10.906,4.821,17.203,4.821
				c6.298,0,12.134-1.835,17.203-4.821l27.964,27.964c1.664,1.664,3.849,2.5,6.033,2.5c2.185,0,4.369-0.836,6.033-2.5
				c3.337-3.336,3.337-8.73,0-12.066l-27.947-27.955c3.004-5.086,4.847-10.94,4.847-17.254c0-6.306-1.835-12.134-4.821-17.203
				l27.921-27.921c3.337-3.337,3.337-8.73,0-12.066c-3.337-3.336-8.73-3.336-12.066,0l-27.913,27.913
				c-5.077-3.012-10.931-4.855-17.254-4.855c-6.323,0-12.177,1.843-17.263,4.855l-27.904-27.913c-3.336-3.336-8.73-3.336-12.066,0
				c-3.337,3.337-3.337,8.73,0,12.066l27.921,27.921c-2.987,5.069-4.821,10.897-4.821,17.203c0,6.315,1.843,12.169,4.847,17.254
				l-27.947,27.955c-3.337,3.337-3.337,8.73,0,12.066C328.431,186.838,330.615,187.675,332.8,187.675z M371.789,116.012
				c0.051-0.051,0.119-0.06,0.171-0.111c0.06-0.06,0.068-0.128,0.12-0.188c3.081-3.012,7.279-4.881,11.921-4.881
				c4.642,0,8.841,1.869,11.913,4.881c0.06,0.06,0.068,0.128,0.128,0.188c0.051,0.051,0.12,0.06,0.171,0.111
				c2.987,3.072,4.855,7.262,4.855,11.887c0,9.412-7.654,17.067-17.067,17.067c-9.412,0-17.067-7.654-17.067-17.067
				C366.933,123.274,368.802,119.084,371.789,116.012z"/>
			<path d="M332.8,494.875h-17.067c-4.719,0-8.533,3.823-8.533,8.533s3.814,8.533,8.533,8.533H332.8
				c4.719,0,8.533-3.823,8.533-8.533S337.519,494.875,332.8,494.875z"/>
			<path d="M256.111,192.121c-0.862,15.369,5.734,30.191,19.601,44.058c27.017,27.017,58.3,26.121,87.211-2.79
				c8.047-8.038,15.667-20.966,21.077-31.377c5.41,10.402,13.03,23.339,21.077,31.377c14.925,14.916,30.31,22.485,45.73,22.485
				h0.009c14.447,0,28.399-6.622,41.472-19.695c13.867-13.867,20.463-28.698,19.601-44.083
				c-0.819-14.541-8.371-29.047-22.443-43.119c-8.03-8.047-20.949-15.573-31.351-20.898c10.394-5.478,23.322-13.175,31.351-21.214
				c14.071-14.071,21.623-28.587,22.443-43.145c0.862-15.403-5.734-30.242-19.601-44.109c-26.982-26.991-58.274-26.044-87.211,2.884
				C397.03,30.533,389.41,43.47,384,53.872c-5.41-10.402-13.03-23.339-21.077-31.377c-28.928-28.928-60.22-29.867-87.211-2.884
				c-13.867,13.867-20.463,28.706-19.601,44.109c0.819,14.558,8.371,29.073,22.443,43.145c8.038,8.047,20.975,15.659,31.377,21.052
				c-10.402,5.419-23.339,13.065-31.377,21.103C264.482,163.09,256.93,177.597,256.111,192.121z M333.107,135.749
				c3.157-1.34,5.205-4.437,5.205-7.868c-0.009-3.43-2.065-6.519-5.231-7.851c-0.29-0.128-29.943-12.706-42.462-25.233
				c-11.008-11.016-16.896-21.794-17.468-32.043c-0.58-10.334,4.344-20.787,14.635-31.078c20.454-20.437,40.875-19.294,63.07,2.884
				c12.527,12.535,25.156,42.18,25.284,42.479c1.331,3.157,4.437,5.205,7.859,5.205c3.43,0,6.528-2.048,7.859-5.205
				c3.499-8.286,14.857-32.051,25.284-42.479c22.187-22.17,42.615-23.33,63.07-2.876c10.291,10.283,15.215,20.736,14.635,31.07
				c-0.572,10.249-6.46,21.026-17.468,32.043c-12.544,12.553-42.24,25.455-42.539,25.574c-3.149,1.365-5.171,4.48-5.154,7.91
				c0.034,3.43,2.116,6.511,5.291,7.817c0.29,0.128,29.901,12.433,42.402,24.943c11.017,11.008,16.896,21.786,17.468,32.017
				c0.58,10.317-4.343,20.762-14.635,31.053c-9.745,9.754-19.635,14.694-29.397,14.694c-10.743,0-22.067-5.879-33.673-17.485
				c-12.527-12.527-25.165-42.18-25.284-42.479c-1.331-3.157-4.437-5.214-7.859-5.214c-3.43,0-6.528,2.057-7.859,5.214
				c-3.499,8.286-14.857,32.06-25.284,42.479c-22.161,22.161-42.607,23.262-63.07,2.79c-10.291-10.291-15.215-20.727-14.635-31.027
				c0.572-10.223,6.451-20.983,17.468-32C303.147,148.549,332.809,135.877,333.107,135.749z"/>
		</g>
	</g>
</g>
<g>
</g>
<g>
</g>
<g>
</g>
<g>
</g>
<g>
</g>
<g>
</g>
<g>
</g>
<g>
</g>
<g>
</g>
<g>
</g>
<g>
</g>
<g>
</g>
<g>
</g>
<g>
</g>
<g>
</g>
</svg>
